<?xml version="1.0" encoding="UTF-8" standalone="no"?>
<!-- Created with Inkscape (http://www.inkscape.org/) -->

<svg
   version="1.1"
   id="svg2"
   width="95.877602"
   height="161.65067"
   viewBox="0 0 95.877602 161.65067"
   sodipodi:docname="harbor-1081483.ai"
   xmlns:inkscape="http://www.inkscape.org/namespaces/inkscape"
   xmlns:sodipodi="http://sodipodi.sourceforge.net/DTD/sodipodi-0.dtd"
   xmlns="http://www.w3.org/2000/svg"
   xmlns:svg="http://www.w3.org/2000/svg">
  <defs
     id="defs6">
    <clipPath
       clipPathUnits="userSpaceOnUse"
       id="clipPath16">
      <path
         d="M 0,121.238 H 71.908 V 0 H 0 Z"
         id="path14" />
    </clipPath>
    <clipPath
       clipPathUnits="userSpaceOnUse"
       id="clipPath28">
      <path
         d="M 0,121.238 H 71.908 V 0 H 0 Z"
         id="path26" />
    </clipPath>
    <clipPath
       clipPathUnits="userSpaceOnUse"
       id="clipPath40">
      <path
         d="M 0,121.238 H 71.908 V 0 H 0 Z"
         id="path38" />
    </clipPath>
    <clipPath
       clipPathUnits="userSpaceOnUse"
       id="clipPath52">
      <path
         d="M 0,121.238 H 71.908 V 0 H 0 Z"
         id="path50" />
    </clipPath>
    <clipPath
       clipPathUnits="userSpaceOnUse"
       id="clipPath64">
      <path
         d="M 0,121.238 H 71.908 V 0 H 0 Z"
         id="path62" />
    </clipPath>
    <clipPath
       clipPathUnits="userSpaceOnUse"
       id="clipPath76">
      <path
         d="M 0,121.238 H 71.908 V 0 H 0 Z"
         id="path74" />
    </clipPath>
    <clipPath
       clipPathUnits="userSpaceOnUse"
       id="clipPath88">
      <path
         d="M 0,121.238 H 71.908 V 0 H 0 Z"
         id="path86" />
    </clipPath>
    <clipPath
       clipPathUnits="userSpaceOnUse"
       id="clipPath128">
      <path
         d="M 0,121.238 H 71.908 V 0 H 0 Z"
         id="path126" />
    </clipPath>
    <clipPath
       clipPathUnits="userSpaceOnUse"
       id="clipPath144">
      <path
         d="M 0,121.238 H 71.908 V 0 H 0 Z"
         id="path142" />
    </clipPath>
    <clipPath
       clipPathUnits="userSpaceOnUse"
       id="clipPath160">
      <path
         d="M 0,121.238 H 71.908 V 0 H 0 Z"
         id="path158" />
    </clipPath>
    <clipPath
       clipPathUnits="userSpaceOnUse"
       id="clipPath172">
      <path
         d="M 0,121.238 H 71.908 V 0 H 0 Z"
         id="path170" />
    </clipPath>
    <clipPath
       clipPathUnits="userSpaceOnUse"
       id="clipPath188">
      <path
         d="M 0,121.238 H 71.908 V 0 H 0 Z"
         id="path186" />
    </clipPath>
  </defs>
  <sodipodi:namedview
     id="namedview4"
     pagecolor="#ffffff"
     bordercolor="#000000"
     borderopacity="0.25"
     inkscape:showpageshadow="2"
     inkscape:pageopacity="0.0"
     inkscape:pagecheckerboard="0"
     inkscape:deskcolor="#d1d1d1" />
  <g
     id="g8"
     inkscape:groupmode="layer"
     inkscape:label="harbor-1081483"
     transform="matrix(1.3333333,0,0,-1.3333333,0,161.65067)">
    <g
       id="g10">
      <g
         id="g12"
         clip-path="url(#clipPath16)">
        <g
           id="g18"
           transform="translate(30.915)">
          <path
             d="m 0,0 c 1.446,0 5.482,13.021 5.482,24.351 0,11.329 -10.963,11.329 -10.963,0 C -5.481,13.021 -1.447,0 0,0"
             style="fill:#61666d;fill-opacity:1;fill-rule:nonzero;stroke:none"
             id="path20" />
        </g>
      </g>
    </g>
    <g
       id="g22">
      <g
         id="g24"
         clip-path="url(#clipPath28)">
        <g
           id="g30"
           transform="translate(40.9912)">
          <path
             d="m 0,0 c 1.446,0 5.482,13.021 5.482,24.351 0,11.329 -10.963,11.329 -10.963,0 C -5.481,13.021 -1.447,0 0,0"
             style="fill:#61666d;fill-opacity:1;fill-rule:nonzero;stroke:none"
             id="path32" />
        </g>
      </g>
    </g>
    <g
       id="g34">
      <g
         id="g36"
         clip-path="url(#clipPath40)">
        <g
           id="g42"
           transform="translate(71.9082,74.3916)">
          <path
             d="m 0,0 c 0,-2.99 -4.738,-5.414 -10.583,-5.414 -5.846,0 -10.584,2.424 -10.584,5.414 0,2.991 4.738,5.416 10.584,5.416 C -4.738,5.416 0,2.991 0,0"
             style="fill:#61666d;fill-opacity:1;fill-rule:nonzero;stroke:none"
             id="path44" />
        </g>
      </g>
    </g>
    <g
       id="g46">
      <g
         id="g48"
         clip-path="url(#clipPath52)">
        <g
           id="g54"
           transform="translate(21.167,74.3916)">
          <path
             d="m 0,0 c 0,-2.99 -4.738,-5.414 -10.583,-5.414 -5.846,0 -10.584,2.424 -10.584,5.414 0,2.991 4.738,5.416 10.584,5.416 C -4.738,5.416 0,2.991 0,0"
             style="fill:#61666d;fill-opacity:1;fill-rule:nonzero;stroke:none"
             id="path56" />
        </g>
      </g>
    </g>
    <g
       id="g58">
      <g
         id="g60"
         clip-path="url(#clipPath64)">
        <g
           id="g66"
           transform="translate(42.3477,110.4365)">
          <path
             d="M 0,0 H -12.713 C -21.205,0 -28.09,-7.225 -28.09,-16.138 l -0.075,-55.607 c 0,-8.913 6.885,-16.138 15.378,-16.138 h 12.713 c 8.492,0 15.377,7.225 15.377,16.138 l 0.075,55.607 C 15.378,-7.225 8.493,0 0,0"
             style="fill:#61666d;fill-opacity:1;fill-rule:nonzero;stroke:none"
             id="path68" />
        </g>
      </g>
    </g>
    <g
       id="g70">
      <g
         id="g72"
         clip-path="url(#clipPath76)">
        <g
           id="g78"
           transform="translate(57.7256,89.252)">
          <path
             d="m 0,0 c 0,-12.618 -9.747,-22.847 -21.771,-22.847 -12.025,0 -21.772,10.229 -21.772,22.847 v 9.14 c 0,12.617 9.747,22.846 21.772,22.846 C -9.747,31.986 0,21.757 0,9.14 Z"
             style="fill:#61666d;fill-opacity:1;fill-rule:nonzero;stroke:none"
             id="path80" />
        </g>
      </g>
    </g>
    <g
       id="g82">
      <g
         id="g84"
         clip-path="url(#clipPath88)">
        <g
           id="g90"
           transform="translate(40.3818,29.4541)">
          <path
             d="M 0,0 C 0,1.656 1.344,3 3,3 4.657,3 6,1.656 6,0 6,-1.657 4.657,-3 3,-3 1.344,-3 0,-1.657 0,0"
             style="fill:#acb0b5;fill-opacity:1;fill-rule:nonzero;stroke:none"
             id="path92" />
        </g>
        <g
           id="g94"
           transform="translate(48.0498,32.9531)">
          <path
             d="M 0,0 C 0,1.196 0.97,2.167 2.166,2.167 3.362,2.167 4.332,1.196 4.332,0 4.332,-1.196 3.362,-2.167 2.166,-2.167 0.97,-2.167 0,-1.196 0,0"
             style="fill:#acb0b5;fill-opacity:1;fill-rule:nonzero;stroke:none"
             id="path96" />
        </g>
        <g
           id="g98"
           transform="translate(35.2471,28.0967)">
          <path
             d="M 0,0 C 0,0.906 0.736,1.643 1.643,1.643 2.55,1.643 3.285,0.906 3.285,0 3.285,-0.907 2.55,-1.643 1.643,-1.643 0.736,-1.643 0,-0.907 0,0"
             style="fill:#acb0b5;fill-opacity:1;fill-rule:nonzero;stroke:none"
             id="path100" />
        </g>
        <g
           id="g102"
           transform="translate(44.6396,34.5439)">
          <path
             d="M 0,0 C 0,0.627 0.508,1.137 1.136,1.137 1.763,1.137 2.271,0.627 2.271,0 2.271,-0.627 1.763,-1.136 1.136,-1.136 0.508,-1.136 0,-0.627 0,0"
             style="fill:#acb0b5;fill-opacity:1;fill-rule:nonzero;stroke:none"
             id="path104" />
        </g>
        <g
           id="g106"
           transform="translate(21.1328,82.4463)">
          <path
             d="M 0,0 C 1.526,0.645 3.286,-0.07 3.931,-1.597 4.575,-3.122 3.86,-4.883 2.334,-5.527 0.808,-6.172 -0.952,-5.457 -1.597,-3.931 -2.241,-2.404 -1.526,-0.645 0,0"
             style="fill:#acb0b5;fill-opacity:1;fill-rule:nonzero;stroke:none"
             id="path108" />
        </g>
        <g
           id="g110"
           transform="translate(17.8848,86.6494)">
          <path
             d="M 0,0 C 0.835,0.353 1.799,-0.039 2.152,-0.874 2.505,-1.71 2.113,-2.675 1.278,-3.027 0.442,-3.38 -0.521,-2.988 -0.874,-2.152 -1.228,-1.316 -0.836,-0.354 0,0"
             style="fill:#acb0b5;fill-opacity:1;fill-rule:nonzero;stroke:none"
             id="path112" />
        </g>
        <g
           id="g114"
           transform="translate(27.4775,80.5059)">
          <path
             d="M 0,0 C 0.577,0.243 1.245,-0.027 1.489,-0.605 1.733,-1.183 1.462,-1.85 0.884,-2.094 0.307,-2.338 -0.36,-2.066 -0.604,-1.489 -0.848,-0.912 -0.577,-0.244 0,0"
             style="fill:#acb0b5;fill-opacity:1;fill-rule:nonzero;stroke:none"
             id="path116" />
        </g>
        <g
           id="g118"
           transform="translate(52.3818,37.4541)">
          <path
             d="M 0,0 C 0,0.502 0.407,0.908 0.909,0.908 1.411,0.908 1.818,0.502 1.818,0 1.818,-0.502 1.411,-0.909 0.909,-0.909 0.407,-0.909 0,-0.502 0,0"
             style="fill:#acb0b5;fill-opacity:1;fill-rule:nonzero;stroke:none"
             id="path120" />
        </g>
      </g>
    </g>
    <g
       id="g122">
      <g
         id="g124"
         clip-path="url(#clipPath128)">
        <g
           id="g130"
           transform="translate(49.2295,104.2676)">
          <path
             d="m 0,0 c 0,-1.841 -1.492,-3.333 -3.333,-3.333 -1.841,0 -3.333,1.492 -3.333,3.333 0,1.841 1.492,3.333 3.333,3.333 C -1.492,3.333 0,1.841 0,0"
             style="fill:#231f20;fill-opacity:1;fill-rule:nonzero;stroke:none"
             id="path132" />
        </g>
        <g
           id="g134"
           transform="translate(47.5195,105.708)">
          <path
             d="m 0,0 c 0,-0.499 -0.404,-0.904 -0.903,-0.904 -0.499,0 -0.904,0.405 -0.904,0.904 0,0.499 0.405,0.903 0.904,0.903 C -0.404,0.903 0,0.499 0,0"
             style="fill:#ffffff;fill-opacity:1;fill-rule:nonzero;stroke:none"
             id="path136" />
        </g>
      </g>
    </g>
    <g
       id="g138">
      <g
         id="g140"
         clip-path="url(#clipPath144)">
        <g
           id="g146"
           transform="translate(29.9727,104.2676)">
          <path
             d="m 0,0 c 0,-1.841 -1.492,-3.333 -3.333,-3.333 -1.841,0 -3.333,1.492 -3.333,3.333 0,1.841 1.492,3.333 3.333,3.333 C -1.492,3.333 0,1.841 0,0"
             style="fill:#231f20;fill-opacity:1;fill-rule:nonzero;stroke:none"
             id="path148" />
        </g>
        <g
           id="g150"
           transform="translate(28.2627,105.708)">
          <path
             d="m 0,0 c 0,-0.499 -0.404,-0.904 -0.903,-0.904 -0.499,0 -0.904,0.405 -0.904,0.904 0,0.499 0.405,0.903 0.904,0.903 C -0.404,0.903 0,0.499 0,0"
             style="fill:#ffffff;fill-opacity:1;fill-rule:nonzero;stroke:none"
             id="path152" />
        </g>
      </g>
    </g>
    <g
       id="g154">
      <g
         id="g156"
         clip-path="url(#clipPath160)">
        <g
           id="g162"
           transform="translate(40.7871,95.1387)">
          <path
             d="m 0,0 c 0,-1.56 -3.065,-2.823 -4.833,-2.823 -1.71,0 -4.833,1.263 -4.833,2.823 0,1.56 2.165,1.665 4.833,1.665 C -2.165,1.665 0,1.56 0,0"
             style="fill:#231f20;fill-opacity:1;fill-rule:nonzero;stroke:none"
             id="path164" />
        </g>
      </g>
    </g>
    <g
       id="g166">
      <g
         id="g168"
         clip-path="url(#clipPath172)">
        <g
           id="g174"
           transform="translate(36.5977,98.1992)">
          <path
             d="m 0,0 c 0.288,-1.632 -1.662,-3.339 -4.357,-3.815 -2.694,-0.475 -5.114,0.462 -5.401,2.094 -0.288,1.632 1.664,3.34 4.359,3.816 C -2.705,2.569 -0.287,1.632 0,0"
             style="fill:#acb0b5;fill-opacity:1;fill-rule:nonzero;stroke:none"
             id="path176" />
        </g>
        <g
           id="g178"
           transform="translate(45.0684,96.4785)">
          <path
             d="m 0,0 c -0.288,-1.632 -2.705,-2.569 -5.4,-2.094 -2.694,0.475 -4.647,2.183 -4.359,3.815 0.288,1.632 2.707,2.569 5.402,2.093 C -1.664,3.34 0.287,1.632 0,0"
             style="fill:#acb0b5;fill-opacity:1;fill-rule:nonzero;stroke:none"
             id="path180" />
        </g>
      </g>
    </g>
    <g
       id="g182">
      <g
         id="g184"
         clip-path="url(#clipPath188)">
        <g
           id="g190"
           transform="translate(38.7773,100.1621)">
          <path
             d="m 0,0 c 0,-1.56 -1.791,-2.823 -2.823,-2.823 -0.999,0 -2.823,1.263 -2.823,2.823 0,1.56 1.264,1.665 2.823,1.665 C -1.265,1.665 0,1.56 0,0"
             style="fill:#231f20;fill-opacity:1;fill-rule:nonzero;stroke:none"
             id="path192" />
        </g>
      </g>
    </g>
    <g
       id="g194"
       transform="translate(40.9609,96.084)">
      <path
         d="M 0,0 8.468,-0.74"
         style="fill:none;stroke:#231f20;stroke-width:0.5;stroke-linecap:butt;stroke-linejoin:miter;stroke-miterlimit:10;stroke-dasharray:none;stroke-opacity:1"
         id="path196" />
    </g>
    <g
       id="g198"
       transform="translate(40.9609,98.2246)">
      <path
         d="M 0,0 8.468,0.74"
         style="fill:none;stroke:#231f20;stroke-width:0.5;stroke-linecap:butt;stroke-linejoin:miter;stroke-miterlimit:10;stroke-dasharray:none;stroke-opacity:1"
         id="path200" />
    </g>
    <g
       id="g202"
       transform="translate(30.709,96.084)">
      <path
         d="M 0,0 -8.468,-0.74"
         style="fill:none;stroke:#231f20;stroke-width:0.5;stroke-linecap:butt;stroke-linejoin:miter;stroke-miterlimit:10;stroke-dasharray:none;stroke-opacity:1"
         id="path204" />
    </g>
    <g
       id="g206"
       transform="translate(30.709,98.2246)">
      <path
         d="M 0,0 -8.468,0.74"
         style="fill:none;stroke:#231f20;stroke-width:0.5;stroke-linecap:butt;stroke-linejoin:miter;stroke-miterlimit:10;stroke-dasharray:none;stroke-opacity:1"
         id="path208" />
    </g>
    <g
       id="g210"
       transform="translate(41.6641,97.1533)">
      <path
         d="M 0,0 H 8.5"
         style="fill:none;stroke:#231f20;stroke-width:0.5;stroke-linecap:butt;stroke-linejoin:miter;stroke-miterlimit:10;stroke-dasharray:none;stroke-opacity:1"
         id="path212" />
    </g>
    <g
       id="g214"
       transform="translate(30.0059,97.1533)">
      <path
         d="M 0,0 H -8.5"
         style="fill:none;stroke:#231f20;stroke-width:0.5;stroke-linecap:butt;stroke-linejoin:miter;stroke-miterlimit:10;stroke-dasharray:none;stroke-opacity:1"
         id="path216" />
    </g>
  </g>
</svg>
